<svg width="28" height="28" viewBox="0 0 28 28" fill="none" xmlns="http://www.w3.org/2000/svg">
<rect width="28" height="28" rx="8" fill="#181C2A"/>
<path d="M21 25.3L20.4 24.8C18.4 22.9 17 21.7 17 20.2C17 19 18 18 19.2 18C19.9 18 20.6 18.3 21 18.8C21.4 18.3 22.1 18 22.8 18C24 18 25 18.9 25 20.2C25 21.7 23.6 22.9 21.6 24.8L21 25.3Z" fill="#50B2C0"/>
<path d="M20 4C21.1 4 22 4.9 22 6V15.08L21 15L20 15.08V6H15V14L12.5 11.75L10 14V6H8V22H15.08C15.2 22.72 15.45 23.39 15.8 24H8C6.9 24 6 23.1 6 22V6C6 4.9 6.9 4 8 4H20Z" fill="#8381D9"/>
</svg>
